name ./resultDataOpenSim/trcMotMarkerGrf/sub06/grf-15-02.mot
datacolumns 19
datarows 17
range 1.09200000 1.15600000
endheader

                time	     ground_force_vx	     ground_force_vy	     ground_force_vz	     ground_force_px	     ground_force_py	     ground_force_pz	   l_ground_force_vx	   l_ground_force_vy	   l_ground_force_vz	   l_ground_force_px	   l_ground_force_py	   l_ground_force_pz	     ground_torque_x	     ground_torque_y	     ground_torque_z	   l_ground_torque_x	   l_ground_torque_y	   l_ground_torque_z	
          1.09200000	          0.00000000	          0.00000000	          0.00000000	          0.00000000	          0.00000000	          0.00000000	        129.15483006	        495.69266138	          1.12189256	          0.14915936	         -0.10000000	         -0.03385415	          0.00000000	          0.00000000	          0.00000000	          0.00000000	         -1.88572036	          0.00000000	
          1.09600000	          0.00000000	          0.00000000	          0.00000000	          0.00000000	          0.00000000	          0.00000000	        131.29027717	        482.42096098	          0.61263640	          0.15010110	         -0.10000000	         -0.03357219	          0.00000000	          0.00000000	          0.00000000	          0.00000000	         -1.85190791	          0.00000000	
          1.10000000	          0.00000000	          0.00000000	          0.00000000	          0.00000000	          0.00000000	          0.00000000	        132.34515247	        465.66870645	          0.07928487	          0.15130689	         -0.10000000	         -0.03330215	          0.00000000	          0.00000000	          0.00000000	          0.00000000	         -1.81921860	          0.00000000	
          1.10400000	          0.00000000	          0.00000000	          0.00000000	          0.00000000	          0.00000000	          0.00000000	        132.11549985	        445.48406386	         -0.48659875	          0.15272890	         -0.09999904	         -0.03302914	          0.00000000	          0.00000000	          0.00000000	          0.00000000	         -1.78668253	          0.00000000	
          1.10800000	          0.00000000	          0.00000000	          0.00000000	          0.00000000	          0.00000000	          0.00000000	        130.41968543	        422.10756415	         -1.08525015	          0.15429728	         -0.09999900	         -0.03273785	          0.00000000	          0.00000000	          0.00000000	          0.00000000	         -1.75304264	          0.00000000	
          1.11200000	          0.00000000	          0.00000000	          0.00000000	          0.00000000	          0.00000000	          0.00000000	        127.10800170	        395.89165586	         -1.71816304	          0.15601791	         -0.09999900	         -0.03241011	          0.00000000	          0.00000000	          0.00000000	          0.00000000	         -1.71649230	          0.00000000	
          1.11600000	          0.00000000	          0.00000000	          0.00000000	          0.00000000	          0.00000000	          0.00000000	        122.09073350	        367.21877672	         -2.38398540	          0.15786004	         -0.09999816	         -0.03205822	          0.00000000	          0.00000000	          0.00000000	          0.00000000	         -1.67431716	          0.00000000	
          1.12000000	          0.00000000	          0.00000000	          0.00000000	          0.00000000	          0.00000000	          0.00000000	        115.38065923	        336.53676861	         -3.06519854	          0.15973804	         -0.09999800	         -0.03172650	          0.00000000	          0.00000000	          0.00000000	          0.00000000	         -1.62281744	          0.00000000	
          1.12400000	        -19.66921102	        260.60881799	          8.17315422	          0.83213420	          0.00000000	          0.06489131	        107.14118915	        304.44092883	         -3.71269658	          0.16165522	         -0.09999800	         -0.03143187	          0.00000000	          0.85064539	          0.00000000	          0.00000000	         -1.55777009	          0.00000000	
          1.12800000	        -58.29913946	        481.40096204	         15.99007917	          0.83951968	          0.00000000	          0.06424846	         97.74131686	        271.65197238	         -4.22947066	          0.16365200	         -0.09999728	         -0.03114117	          0.00000000	          1.31372117	          0.00000000	          0.00000000	         -1.47539915	          0.00000000	
          1.13200000	        -98.66821021	        673.44652496	         22.18388372	          0.84652663	          0.00000000	          0.06388501	         87.77049128	        238.87754183	         -4.48381296	          0.16570878	         -0.09999711	         -0.03082808	          0.00000000	          1.73656067	          0.00000000	          0.00000000	         -1.37363674	          0.00000000	
          1.13600000	       -140.55087082	        816.40916797	         25.65097276	          0.85300867	          0.00000000	          0.06392620	         77.90772788	        206.71399625	         -4.37211773	          0.16779859	         -0.09999770	         -0.03050034	          0.00000000	          2.08370743	          0.00000000	          0.00000000	         -1.25331683	          0.00000000	
          1.14000000	       -181.79835539	        902.99506264	         26.26586961	          0.85882472	          0.00000000	          0.06425909	         68.67195432	        175.69404454	         -3.87962597	          0.16987137	         -0.09999740	         -0.03015755	          0.00000000	          2.32534176	          0.00000000	          0.00000000	         -1.11871556	          0.00000000	
          1.14400000	       -219.91328732	        939.43802357	         24.74651474	          0.86419975	          0.00000000	          0.06463456	         60.24450289	        146.34009212	         -3.07658804	          0.17175819	         -0.09999700	         -0.02978388	          0.00000000	          2.44339205	          0.00000000	          0.00000000	         -0.97686966	          0.00000000	
          1.14800000	       -253.79300031	        940.83453678	         21.96180606	          0.86955729	          0.00000000	          0.06487782	         52.49607313	        119.09138618	         -2.06922502	          0.17326038	         -0.09999752	         -0.02934867	          0.00000000	          2.43710700	          0.00000000	          0.00000000	         -0.83573275	          0.00000000	
          1.15200000	       -283.60148791	        924.64625861	         18.45298508	          0.87517283	          0.00000000	          0.06496703	         45.17554096	         94.21185293	         -0.96686045	          0.17444604	         -0.09999848	         -0.02879387	          0.00000000	          2.32527352	          0.00000000	          0.00000000	         -0.70204126	          0.00000000	
          1.15600000	       -309.42260392	        906.05916534	         14.53424375	          0.88088153	          0.00000000	          0.06498217	         38.10307562	         71.76784118	          0.12661910	          0.17572805	         -0.09999856	         -0.02800980	          0.00000000	          2.14235280	          0.00000000	          0.00000000	         -0.57993063	          0.00000000	
